# xmcd
#
# Track frame offsets: 
#        182
#        13487
#        26022
#        42515
#        56922
#        74930
#        90145
#        102827
#        121200
#        135335
#        146675
#        158352
#
# Disc length: 2251 seconds
#
# Revision: 1
# Processed by: cddbd v1.5.1PL0 Copyright (c) Steve Scherf et al.
# Submitted via: ExactAudioCopy v0.90b4
#
DISCID=a408c90c
DTITLE=Nanci Griffith - Poet In My Window (Deluxe Edition)
DYEAR=1900
DGENRE=Folk
TTITLE0=Cant Love Wrong (Previously Unreleased)
TTITLE1=Marilyn Monroe/Neon And Waltzes
TTITLE2=Heart Of A Miner
TTITLE3=Julie Anne
TTITLE4=You Can't Go Home Again
TTITLE5=October Reasons
TTITLE6=Wheels
TTITLE7=Workin' In Corners
TTITLE8=Waltzing With The Angels
TTITLE9=Trouble With Roses
TTITLE10=Tonight I Think I'm Gonna Go Downtown
TTITLE11=Poet In My Window
EXTD=
EXTT0=
EXTT1=
EXTT2=
EXTT3=
EXTT4=
EXTT5=
EXTT6=
EXTT7=
EXTT8=
EXTT9=
EXTT10=
EXTT11=
PLAYORDER=
